<svg preserveAspectRatio="none" width="100%" height="100%" overflow="visible" style="display: block;" viewBox="0 0 27 24" fill="none" xmlns="http://www.w3.org/2000/svg">
<path id="Icon" d="M5.7 24C4.95 24 4.3125 23.7375 3.7875 23.2125C3.2625 22.6875 3 22.05 3 21.3C3 20.775 3.15 20.2813 3.45 19.8188C3.75 19.3563 4.15 19.025 4.65 18.825L10.5 16.5V13.125C9.15 14.7 7.58125 15.9062 5.79375 16.7437C4.00625 17.5812 2.075 18 0 18V15C1.7 15 3.24375 14.65 4.63125 13.95C6.01875 13.25 7.275 12.25 8.4 10.95L10.425 8.55C10.725 8.2 11.075 7.9375 11.475 7.7625C11.875 7.5875 12.3 7.5 12.75 7.5H14.25C14.7 7.5 15.125 7.5875 15.525 7.7625C15.925 7.9375 16.275 8.2 16.575 8.55L18.6 10.95C19.725 12.25 20.9812 13.25 22.3687 13.95C23.7562 14.65 25.3 15 27 15V18C24.925 18 22.9937 17.5812 21.2062 16.7437C19.4187 15.9062 17.85 14.7 16.5 13.125V16.5L22.35 18.825C22.85 19.025 23.25 19.3563 23.55 19.8188C23.85 20.2813 24 20.775 24 21.3C24 22.05 23.7375 22.6875 23.2125 23.2125C22.6875 23.7375 22.05 24 21.3 24H10.5V23.25C10.5 22.6 10.7125 22.0625 11.1375 21.6375C11.5625 21.2125 12.1 21 12.75 21H17.25C17.475 21 17.6563 20.9313 17.7938 20.7938C17.9313 20.6563 18 20.475 18 20.25C18 20.025 17.9313 19.8437 17.7938 19.7062C17.6563 19.5687 17.475 19.5 17.25 19.5H12.75C11.7 19.5 10.8125 19.8625 10.0875 20.5875C9.3625 21.3125 9 22.2 9 23.25V24H5.7V24M13.5 6C12.675 6 11.9688 5.70625 11.3813 5.11875C10.7938 4.53125 10.5 3.825 10.5 3C10.5 2.175 10.7938 1.46875 11.3813 0.88125C11.9688 0.29375 12.675 0 13.5 0C14.325 0 15.0312 0.29375 15.6187 0.88125C16.2062 1.46875 16.5 2.175 16.5 3C16.5 3.825 16.2062 4.53125 15.6187 5.11875C15.0312 5.70625 14.325 6 13.5 6V6" fill="var(--fill-0, #133A35)"/>
</svg>
