<svg preserveAspectRatio="none" width="100%" height="100%" overflow="visible" style="display: block;" viewBox="0 0 20.373 18.9115" fill="none" xmlns="http://www.w3.org/2000/svg">
<path id="Icon" d="M16.3077 12.2769L17.3615 11.2231C16.682 10.5436 16.1531 9.76858 15.7749 8.89807C15.3967 8.02757 15.2076 7.11058 15.2076 6.14711C15.2076 5.18364 15.3967 4.26889 15.7749 3.40286C16.1531 2.53683 16.682 1.76408 17.3615 1.08459L16.3077 0C15.4897 0.817946 14.8519 1.75801 14.3942 2.82018C13.9365 3.88236 13.7077 4.99101 13.7077 6.14613C13.7077 7.30126 13.9365 8.40734 14.3942 9.46439C14.8519 10.5214 15.4897 11.4589 16.3077 12.2769V12.2769M19.3192 9.23456L20.373 8.18074C20.1044 7.9117 19.8911 7.60309 19.7331 7.25492C19.5751 6.90675 19.4961 6.53716 19.4961 6.14613C19.4961 5.75511 19.5751 5.38551 19.7331 5.03734C19.8911 4.68917 20.1044 4.38057 20.373 4.11153L19.3192 3.04232C18.9 3.46155 18.5747 3.9343 18.3433 4.46058C18.1119 4.98685 17.9962 5.54358 17.9962 6.13075C17.9962 6.71792 18.1118 7.28031 18.3432 7.81791C18.5745 8.35551 18.8999 8.82773 19.3192 9.23456V9.23456M7.49996 11.2961C6.53747 11.2961 5.71352 10.9541 5.02811 10.2701C4.3427 9.58618 4 8.76151 4 7.79613C4 6.83076 4.34198 6.00609 5.02595 5.32212C5.70992 4.63815 6.53459 4.29617 7.49996 4.29617C8.46534 4.29617 9.29001 4.63815 9.97398 5.32212C10.6579 6.00609 10.9999 6.83076 10.9999 7.79613C10.9999 8.76151 10.6572 9.58618 9.97181 10.2701C9.2864 10.9541 8.46245 11.2961 7.49996 11.2961V11.2961M0 18.9115V16.6884C0 16.1833 0.128845 15.7259 0.386536 15.3163C0.644226 14.9067 1.00384 14.5897 1.46537 14.3654C2.29614 13.9513 3.22563 13.6054 4.25383 13.3279C5.28203 13.0503 6.36408 12.9115 7.49996 12.9115C8.63585 12.9115 9.71789 13.0503 10.7461 13.3279C11.7743 13.6054 12.7038 13.9513 13.5346 14.3654C13.9961 14.5897 14.3557 14.9067 14.6134 15.3163C14.8711 15.7259 14.9999 16.1833 14.9999 16.6884V18.9115H0V18.9115M1.49996 17.4115H13.5V16.6884C13.5 16.4602 13.4381 16.2647 13.3144 16.1019C13.1907 15.9391 13.0346 15.8064 12.8461 15.7038C12.2333 15.391 11.456 15.0974 10.5144 14.823C9.57271 14.5487 8.5679 14.4115 7.49996 14.4115C6.43202 14.4115 5.42722 14.5487 4.48555 14.823C3.54389 15.0974 2.76664 15.391 2.15382 15.7038C1.96536 15.8064 1.80926 15.9391 1.68554 16.1019C1.56182 16.2647 1.49996 16.4602 1.49996 16.6884V17.4115V17.4115M7.49996 9.79613C8.04996 9.79613 8.5208 9.6003 8.91246 9.20863C9.30413 8.81697 9.49996 8.34613 9.49996 7.79613C9.49996 7.24613 9.30413 6.7753 8.91246 6.38363C8.5208 5.99197 8.04996 5.79613 7.49996 5.79613C6.94996 5.79613 6.47913 5.99197 6.08746 6.38363C5.6958 6.7753 5.49996 7.24613 5.49996 7.79613C5.49996 8.34613 5.6958 8.81697 6.08746 9.20863C6.47913 9.6003 6.94996 9.79613 7.49996 9.79613V9.79613M7.49996 7.79613V7.79613V7.79613V7.79613V7.79613V7.79613V7.79613V7.79613V7.79613V7.79613M7.49996 17.4115V17.4115V17.4115V17.4115V17.4115V17.4115V17.4115V17.4115V17.4115V17.4115V17.4115V17.4115V17.4115" fill="var(--fill-0, #133A35)"/>
</svg>
