<svg width="80" height="19" viewBox="0 0 80 19" fill="none" xmlns="http://www.w3.org/2000/svg">
<path d="M7.03633e-05 18.528V17.952L2.04007 17.472V1.284L7.03633e-05 0.828V0.251998H6.99607V0.828L4.74007 1.284V17.532H11.4721C11.9041 16.804 12.2761 16.072 12.5881 15.336C12.9001 14.6 13.2001 13.776 13.4881 12.864H14.1961L13.2961 18.528H7.03633e-05ZM26.9706 18.78C25.7066 18.78 24.5426 18.544 23.4786 18.072C22.4226 17.592 21.5026 16.928 20.7186 16.08C19.9426 15.224 19.3386 14.228 18.9066 13.092C18.4826 11.948 18.2706 10.712 18.2706 9.384C18.2706 8.048 18.4826 6.812 18.9066 5.676C19.3386 4.54 19.9426 3.548 20.7186 2.7C21.5026 1.844 22.4226 1.18 23.4786 0.708C24.5426 0.236 25.7066 -4.76837e-07 26.9706 -4.76837e-07C28.2346 -4.76837e-07 29.3986 0.236 30.4626 0.708C31.5266 1.18 32.4466 1.844 33.2226 2.7C34.0066 3.548 34.6146 4.54 35.0466 5.676C35.4786 6.812 35.6946 8.048 35.6946 9.384C35.6946 10.712 35.4786 11.948 35.0466 13.092C34.6146 14.228 34.0066 15.224 33.2226 16.08C32.4466 16.928 31.5266 17.592 30.4626 18.072C29.3986 18.544 28.2346 18.78 26.9706 18.78ZM26.9706 17.652C27.6826 17.652 28.3266 17.524 28.9026 17.268C29.4866 17.012 29.9986 16.644 30.4386 16.164C30.8866 15.676 31.2626 15.092 31.5666 14.412C31.8706 13.732 32.0986 12.964 32.2506 12.108C32.4026 11.252 32.4786 10.324 32.4786 9.324C32.4786 8.34 32.4026 7.428 32.2506 6.588C32.0986 5.74 31.8746 4.98 31.5786 4.308C31.2826 3.636 30.9106 3.064 30.4626 2.592C30.0226 2.112 29.5106 1.748 28.9266 1.5C28.3506 1.244 27.7066 1.116 26.9946 1.116C26.2826 1.116 25.6346 1.244 25.0506 1.5C24.4666 1.748 23.9506 2.112 23.5026 2.592C23.0626 3.072 22.6906 3.652 22.3866 4.332C22.0906 5.004 21.8666 5.764 21.7146 6.612C21.5626 7.46 21.4866 8.38 21.4866 9.372C21.4866 10.364 21.5626 11.284 21.7146 12.132C21.8666 12.98 22.0906 13.744 22.3866 14.424C22.6906 15.104 23.0626 15.684 23.5026 16.164C23.9426 16.644 24.4506 17.012 25.0266 17.268C25.6106 17.524 26.2586 17.652 26.9706 17.652ZM49.3159 18.78C47.6119 18.78 46.1039 18.392 44.7919 17.616C43.4879 16.832 42.4639 15.748 41.7199 14.364C40.9839 12.98 40.6159 11.392 40.6159 9.6C40.6159 8.216 40.8399 6.944 41.2879 5.784C41.7359 4.616 42.3639 3.6 43.1719 2.736C43.9799 1.864 44.9319 1.192 46.0279 0.719999C47.1239 0.239999 48.3199 -4.76837e-07 49.6159 -4.76837e-07C50.5519 -4.76837e-07 51.4279 0.127999 52.2439 0.383999C53.0599 0.639999 53.7359 1 54.2719 1.464H54.3559L55.6039 0.251998H56.1559V5.76H55.5439C55.0319 4.608 54.5119 3.696 53.9839 3.024C53.4559 2.344 52.8679 1.856 52.2199 1.56C51.5799 1.264 50.8199 1.116 49.9399 1.116C47.9399 1.116 46.4279 1.832 45.4039 3.264C44.3799 4.688 43.8679 6.796 43.8679 9.588C43.8679 12.292 44.3479 14.312 45.3079 15.648C46.2679 16.976 47.7239 17.64 49.6759 17.64C50.4359 17.64 51.1119 17.52 51.7039 17.28C52.2959 17.032 52.7359 16.668 53.0239 16.188C53.1119 16.076 53.1679 15.944 53.1919 15.792C53.2159 15.632 53.2279 15.352 53.2279 14.952V10.404L51.0919 9.948V9.372H58.0519V9.948L55.9399 10.404V16.596C55.4919 17.02 54.9079 17.396 54.1879 17.724C53.4679 18.052 52.6839 18.312 51.8359 18.504C50.9879 18.688 50.1479 18.78 49.3159 18.78ZM71.0519 18.78C69.7879 18.78 68.6239 18.544 67.5599 18.072C66.5039 17.592 65.5839 16.928 64.7999 16.08C64.0239 15.224 63.4199 14.228 62.9879 13.092C62.5639 11.948 62.3519 10.712 62.3519 9.384C62.3519 8.048 62.5639 6.812 62.9879 5.676C63.4199 4.54 64.0239 3.548 64.7999 2.7C65.5839 1.844 66.5039 1.18 67.5599 0.708C68.6239 0.236 69.7879 -4.76837e-07 71.0519 -4.76837e-07C72.3159 -4.76837e-07 73.4799 0.236 74.5439 0.708C75.6079 1.18 76.5279 1.844 77.3039 2.7C78.0879 3.548 78.6959 4.54 79.1279 5.676C79.5599 6.812 79.7759 8.048 79.7759 9.384C79.7759 10.712 79.5599 11.948 79.1279 13.092C78.6959 14.228 78.0879 15.224 77.3039 16.08C76.5279 16.928 75.6079 17.592 74.5439 18.072C73.4799 18.544 72.3159 18.78 71.0519 18.78ZM71.0519 17.652C71.7639 17.652 72.4079 17.524 72.9839 17.268C73.5679 17.012 74.0799 16.644 74.5199 16.164C74.9679 15.676 75.3439 15.092 75.6479 14.412C75.9519 13.732 76.1799 12.964 76.3319 12.108C76.4839 11.252 76.5599 10.324 76.5599 9.324C76.5599 8.34 76.4839 7.428 76.3319 6.588C76.1799 5.74 75.9559 4.98 75.6599 4.308C75.3639 3.636 74.9919 3.064 74.5439 2.592C74.1039 2.112 73.5919 1.748 73.0079 1.5C72.4319 1.244 71.7879 1.116 71.0759 1.116C70.3639 1.116 69.7159 1.244 69.1319 1.5C68.5479 1.748 68.0319 2.112 67.5839 2.592C67.1439 3.072 66.7719 3.652 66.4679 4.332C66.1719 5.004 65.9479 5.764 65.7959 6.612C65.6439 7.46 65.5679 8.38 65.5679 9.372C65.5679 10.364 65.6439 11.284 65.7959 12.132C65.9479 12.98 66.1719 13.744 66.4679 14.424C66.7719 15.104 67.1439 15.684 67.5839 16.164C68.0239 16.644 68.5319 17.012 69.1079 17.268C69.6919 17.524 70.3399 17.652 71.0519 17.652Z" fill="#133A35"/>
</svg>
